<svg xmlns="http://www.w3.org/2000/svg" width="1366" height="768" viewBox="0 0 1366 768">
  <rect width="1366" height="768" fill="#f3f5f7"/>
  <rect x="0" y="0" width="230" height="768" fill="#14213d"/>
  <text x="24" y="44" fill="#ffffff" font-size="24" font-family="Segoe UI">LeadOrbit CRM</text>
  <text x="24" y="92" fill="#8ea3b7" font-size="16" font-family="Segoe UI">Lead Listing</text>
  <text x="24" y="124" fill="#8ea3b7" font-size="16" font-family="Segoe UI">Lead Details</text>
  <text x="24" y="156" fill="#cdd7e1" font-size="16" font-family="Segoe UI">Lead Management</text>
  <text x="24" y="188" fill="#8ea3b7" font-size="16" font-family="Segoe UI">Dashboard</text>

  <rect x="230" y="0" width="1136" height="72" fill="#ffffff"/>
  <text x="262" y="44" fill="#0d1b2a" font-size="26" font-family="Segoe UI">Lead Management</text>

  <rect x="254" y="92" width="1088" height="52" rx="10" fill="#ffffff"/>
  <text x="278" y="124" fill="#506070" font-size="14" font-family="Segoe UI">Board View</text>
  <rect x="390" y="104" width="170" height="28" rx="14" fill="#eef2f5"/>
  <text x="422" y="123" fill="#506070" font-size="13" font-family="Segoe UI">Team: Bangalore</text>
  <rect x="570" y="104" width="150" height="28" rx="14" fill="#eef2f5"/>
  <text x="602" y="123" fill="#506070" font-size="13" font-family="Segoe UI">SLA: 1 hour</text>
  <rect x="1150" y="102" width="170" height="32" rx="6" fill="#1b9aaa"/>
  <text x="1182" y="123" fill="#ffffff" font-size="13" font-family="Segoe UI">Bulk Reassign</text>

  <rect x="254" y="160" width="256" height="574" rx="10" fill="#ffffff"/>
  <text x="274" y="192" fill="#0d1b2a" font-size="16" font-family="Segoe UI">New (38)</text>
  <rect x="272" y="208" width="220" height="110" rx="8" fill="#f8fafc" stroke="#d8e1ea"/>
  <text x="286" y="234" fill="#0d1b2a" font-size="14" font-family="Segoe UI">Pooja Nair</text>
  <text x="286" y="256" fill="#506070" font-size="12" font-family="Segoe UI">Facebook | Score 77</text>
  <text x="286" y="278" fill="#b42318" font-size="12" font-family="Segoe UI">SLA in 22 mins</text>
  <rect x="272" y="330" width="220" height="110" rx="8" fill="#f8fafc" stroke="#d8e1ea"/>
  <text x="286" y="356" fill="#0d1b2a" font-size="14" font-family="Segoe UI">Arjun Rao</text>
  <text x="286" y="378" fill="#506070" font-size="12" font-family="Segoe UI">Website | Score 49</text>
  <text x="286" y="400" fill="#b42318" font-size="12" font-family="Segoe UI">SLA breached</text>

  <rect x="528" y="160" width="256" height="574" rx="10" fill="#ffffff"/>
  <text x="548" y="192" fill="#0d1b2a" font-size="16" font-family="Segoe UI">Contacted (51)</text>
  <rect x="546" y="208" width="220" height="110" rx="8" fill="#f8fafc" stroke="#d8e1ea"/>
  <text x="560" y="234" fill="#0d1b2a" font-size="14" font-family="Segoe UI">Rahul Sharma</text>
  <text x="560" y="256" fill="#506070" font-size="12" font-family="Segoe UI">Google Ads | Score 84</text>
  <text x="560" y="278" fill="#506070" font-size="12" font-family="Segoe UI">Next: Test drive invite</text>
  <rect x="546" y="330" width="220" height="110" rx="8" fill="#f8fafc" stroke="#d8e1ea"/>
  <text x="560" y="356" fill="#0d1b2a" font-size="14" font-family="Segoe UI">Megha Iyer</text>
  <text x="560" y="378" fill="#506070" font-size="12" font-family="Segoe UI">Twitter/X | Score 71</text>
  <text x="560" y="400" fill="#506070" font-size="12" font-family="Segoe UI">Next: Follow-up call</text>

  <rect x="802" y="160" width="256" height="574" rx="10" fill="#ffffff"/>
  <text x="822" y="192" fill="#0d1b2a" font-size="16" font-family="Segoe UI">Qualified (27)</text>
  <rect x="820" y="208" width="220" height="110" rx="8" fill="#f8fafc" stroke="#d8e1ea"/>
  <text x="834" y="234" fill="#0d1b2a" font-size="14" font-family="Segoe UI">Nikhil Jain</text>
  <text x="834" y="256" fill="#506070" font-size="12" font-family="Segoe UI">Event Lead | Score 82</text>
  <text x="834" y="278" fill="#2a9d8f" font-size="12" font-family="Segoe UI">Test drive Sat 11 AM</text>

  <rect x="1076" y="160" width="266" height="574" rx="10" fill="#ffffff"/>
  <text x="1096" y="192" fill="#0d1b2a" font-size="16" font-family="Segoe UI">Negotiation / Won</text>
  <rect x="1094" y="208" width="230" height="130" rx="8" fill="#f8fafc" stroke="#d8e1ea"/>
  <text x="1108" y="234" fill="#0d1b2a" font-size="14" font-family="Segoe UI">Karthik R</text>
  <text x="1108" y="256" fill="#506070" font-size="12" font-family="Segoe UI">Negotiation | Score 89</text>
  <text x="1108" y="278" fill="#506070" font-size="12" font-family="Segoe UI">Discount approval pending</text>
  <rect x="1094" y="348" width="230" height="130" rx="8" fill="#e8f8ef" stroke="#bfe6cc"/>
  <text x="1108" y="374" fill="#0d1b2a" font-size="14" font-family="Segoe UI">Shruti Menon</text>
  <text x="1108" y="396" fill="#1f7a53" font-size="12" font-family="Segoe UI">Won | Delivery in 5 days</text>
  <text x="1108" y="418" fill="#506070" font-size="12" font-family="Segoe UI">Source: Google Ads</text>

  <rect x="254" y="742" width="1088" height="18" fill="#fff2cc"/>
  <text x="264" y="755" fill="#8a6d1d" font-size="11" font-family="Segoe UI">Automation: 14 leads auto-reassigned from overloaded reps | 9 SLA escalations sent to manager</text>
</svg>